<?xml version="1.0" encoding="UTF-8" standalone="no"?>
<svg
   xmlns:dc="http://purl.org/dc/elements/1.1/"
   xmlns:cc="http://creativecommons.org/ns#"
   xmlns:rdf="http://www.w3.org/1999/02/22-rdf-syntax-ns#"
   xmlns:svg="http://www.w3.org/2000/svg"
   xmlns="http://www.w3.org/2000/svg"
   id="svg8"
   version="1.1"
   viewBox="0 0 210 297"
   height="297mm"
   width="210mm">
  <defs
     id="defs2" />
  <metadata
     id="metadata5">
    <rdf:RDF>
      <cc:Work
         rdf:about="">
        <dc:format>image/svg+xml</dc:format>
        <dc:type
           rdf:resource="http://purl.org/dc/dcmitype/StillImage" />
        <dc:title></dc:title>
      </cc:Work>
    </rdf:RDF>
  </metadata>
  <g
     id="layer1">
    <path
       id="path817"
       d="m 18.345968,152.50068 c -0.07753,-4.25069 0.819849,-8.87943 2.304208,-12.83774 0.931042,-2.48277 2.203605,-4.82374 3.291729,-7.2418 0.886928,-1.97095 1.616291,-4.01806 2.633381,-5.92512 0.744687,-1.39627 1.99068,-2.50398 2.633383,-3.95005 0.691805,-1.55657 0.652986,-3.36884 1.31669,-4.9376 0.55743,-1.31756 1.545975,-2.40772 2.304208,-3.62089 0.887676,-1.42029 1.689866,-2.89542 2.63338,-4.27925 0.704761,-1.03364 1.508908,-1.99682 2.304208,-2.96256 1.450798,-1.76167 3.047894,-3.61479 4.93759,-4.93758 5.37064,-3.759448 2.200452,-1.22614 7.57097,-3.291727 1.695199,-0.651999 3.182658,-1.836225 4.93759,-2.304206 1.59382,-0.425021 3.322284,0.005 4.93759,-0.329172 1.597337,-0.330486 3.014928,-1.297291 4.608417,-1.645867 5.546395,-1.213273 6.274926,-0.21317 11.850216,-0.987514 2.003978,-0.278335 3.913612,-1.099231 5.925106,-1.316691 2.072684,-0.224077 4.16952,0 6.254281,0 1.865311,0 3.730623,0 5.595936,0 4.279243,0 8.558489,0 12.837729,0 0.98752,0 1.97504,0 2.96255,0 0.54863,0 1.10471,-0.09019 1.64587,0 5.82087,0.970144 0.0863,0.114645 3.29173,1.316691 0.52386,0.196444 1.16009,0.05159 1.64586,0.329172 0.34349,0.196279 0.3786,0.707774 0.65835,0.987518 0.27974,0.279741 0.67102,0.420976 0.98751,0.658344 0.12415,0.0931 0.19611,0.249338 0.32918,0.329172 0.42077,0.252463 0.93972,0.344206 1.31668,0.658347 0.36732,0.306097 1.18001,1.985285 1.3167,2.304206 0.13667,0.318925 0.17399,0.677171 0.32917,0.987519 0.61698,1.233978 0.90034,0.962278 1.64586,2.304208 0.28695,0.51653 0.37138,1.12935 0.65834,1.64587 0.26644,0.47957 0.69675,0.85145 0.98752,1.31669 0.26007,0.41611 0.40588,0.8959 0.65835,1.31669 0.40708,0.67847 0.9096,1.29656 1.31669,1.97502 0.25246,0.42079 0.39828,0.90058 0.65835,1.31669 0.29076,0.46524 0.74216,0.82599 0.98751,1.31669 0.0789,0.15772 0.44264,2.03459 0.65834,2.30422 0.85095,1.06368 1.02189,0.13752 1.3167,1.31669 0.0533,0.21289 0,0.43889 0,0.65834 0,0.76808 0,1.53614 0,2.30422 0,1.42641 0,2.85283 0,4.27923 0,0.54863 0.10758,1.10791 0,1.64587 -0.048,0.24058 -0.28106,0.41776 -0.32918,0.65835 -0.0645,0.32277 0,0.65834 0,0.98751 0,0.32918 0,0.65835 0,0.98753 0,0.21944 0.0533,0.44545 0,0.65832 -0.0594,0.23805 -0.25158,0.4256 -0.32918,0.65837 -0.0348,0.10404 0,0.21945 0,0.32916 0,0.32918 0,0.65835 0,0.98752 0,0.54862 -0.10758,1.1079 0,1.64586 0.048,0.24059 0.21945,0.4389 0.32918,0.65835 0.21945,0.43889 0.47611,0.86109 0.65835,1.31669 0.0408,0.10182 0,0.21944 0,0.32917 0.10969,0.21945 0.23806,0.43055 0.32918,0.65835 0.26765,0.66913 0.27236,1.06689 0.65834,1.64586 0.28681,0.43021 0.99118,0.88269 1.31669,1.31669 0.15432,0.20574 0.61006,1.06506 0.98752,1.31669 0.20414,0.13609 0.44796,0.20295 0.65834,0.32917 0.33924,0.20355 0.61709,0.51944 0.98752,0.65835 0.52386,0.19645 1.09725,0.21945 1.64586,0.32917 1.20219,0.24043 2.7623,0.58412 3.95008,0.65834 0.98559,0.0615 1.97503,0 2.96255,0 3.84034,0 7.6807,0 11.52104,0 1.42642,0 2.86041,-0.14677 4.27924,0 1.7767,0.1838 3.49853,0.73492 5.26676,0.98753 1.30799,0.18685 2.63903,0.16529 3.95008,0.32916 1.32454,0.16558 2.62644,0.4857 3.95007,0.65835 1.20176,0.15675 2.4325,0.0915 3.62089,0.32918 1.02073,0.20414 1.9583,0.71363 2.96256,0.98751 0.66657,0.18179 4.92359,0.98052 6.25429,1.64587 0.92585,0.46292 1.7518,1.10334 2.63338,1.64585 0.54488,0.33533 1.12842,0.61123 1.64586,0.98753 0.69306,0.50404 1.28196,1.14181 1.97505,1.64587 0.51741,0.37631 1.14082,0.59471 1.64585,0.98751 0.48995,0.38107 0.87779,0.8778 1.31669,1.31669 0.4389,0.4389 0.87779,0.87779 1.31669,1.31669 0.80712,0.80712 1.73756,1.61343 2.30422,2.63338 0.81725,0.81351 0.52199,2.03151 0.9875,2.96256 0.4845,0.96901 1.51583,1.79218 1.64588,2.96255 0.0727,0.65433 -0.0547,1.31896 0,1.97504 0.0554,0.66511 0.27374,1.30991 0.32916,1.97503 0.0547,0.65607 0,1.31669 0,1.97504 0,1.42642 0,2.85282 0,4.27924 0,2.52366 0,5.04731 0,7.57097 0,0.76807 0,1.53614 0,2.30421 0,0.65835 0.18918,1.34446 0,1.97504 -0.15764,0.52548 -0.68319,0.86021 -0.98752,1.31669 -0.35489,0.53234 -0.62061,1.12172 -0.98752,1.64586 -1.0508,1.50114 -1.64876,1.97793 -2.96255,3.29172 -0.54861,0.54863 -1.09725,1.09724 -1.64586,1.64587 -0.65834,0.65835 -1.26429,1.37364 -1.97504,1.97504 -1.90971,1.6159 -3.05146,2.00918 -5.26676,3.29172 -1.10739,0.64112 -2.11824,1.46483 -3.29172,1.97504 -1.36865,0.59506 -2.86342,0.84475 -4.27925,1.31669 -1.21839,0.40613 -2.44312,0.8046 -3.62091,1.31669 -12.26839,5.33409 4.86701,-1.16838 -8.55847,2.96256 -1.36335,0.41948 -2.56986,1.2858 -3.95007,1.64586 -1.1727,0.30592 -2.4482,0.0232 -3.6209,0.32916 -1.38023,0.36007 -2.59686,1.19481 -3.95008,1.64587 -0.9597,0.3199 -1.95788,0.54015 -2.96254,0.65834 -0.8718,0.1026 -1.7556,0 -2.6334,0 -0.65835,0 -1.31669,0 -1.97504,0 -1.75558,0 -3.51117,0 -5.26676,0 -0.87779,0 -1.76753,0.14432 -2.63337,0 -0.48403,-0.0806 -0.85724,-0.48604 -1.3167,-0.65834 -0.4236,-0.15885 -0.88023,-0.21013 -1.31669,-0.32918 -0.77065,-0.21017 -1.53909,-0.42881 -2.3042,-0.65833 -0.33235,-0.0997 -0.68626,-0.15703 -0.98753,-0.32918 -0.47633,-0.27219 -0.85146,-0.69674 -1.31668,-0.98751 -1.51701,-0.94813 -1.17469,-0.23397 -2.30421,-1.64587 -0.15328,-0.19158 -0.18196,-0.46207 -0.32917,-0.65835 -0.5142,-0.68556 -1.1705,-1.26198 -1.64588,-1.97503 -0.19246,-0.28871 -0.18823,-0.67045 -0.32916,-0.98751 -1.54192,-3.08386 -0.48122,-0.82578 -1.64586,-3.62091 -0.3214,-0.77136 -0.67718,-1.52833 -0.98752,-2.30421 -0.12887,-0.32215 -0.15703,-0.68625 -0.32917,-0.98751 -0.2722,-0.47635 -0.69675,-0.85147 -0.98752,-1.31669 -0.64671,-1.03473 -1.04011,-2.23166 -1.64587,-3.29173 -0.31743,-0.5555 -0.76286,-1.04681 -0.98752,-1.64587 -0.11557,-0.30821 0.0541,-0.66282 0,-0.98751 -0.0571,-0.34226 -0.24501,-0.6509 -0.32916,-0.98752 -0.1357,-0.54278 -0.20781,-1.0997 -0.32918,-1.64586 -0.0981,-0.44164 -0.25479,-0.87044 -0.32917,-1.31669 -0.0361,-0.21646 0.0694,-0.45016 0,-0.65835 -0.15518,-0.46552 -0.46505,-0.86567 -0.65834,-1.31669 -0.27336,-0.63785 -0.34801,-1.35433 -0.65835,-1.97503 -0.0694,-0.1388 -0.21945,-0.21945 -0.32917,-0.32918 -0.21945,-0.21945 -0.47214,-0.41007 -0.65835,-0.65835 -0.14721,-0.19628 -0.13289,-0.51113 -0.32917,-0.65834 -0.53143,-0.39857 -1.06067,-0.32917 -1.64586,-0.32917 -1.09724,0 -2.19449,0 -3.29173,0 -3.29173,0 -6.58345,0 -9.87518,0 -2.52366,0 -5.047313,0 -7.570969,0 -1.206966,0 -2.423253,-0.14971 -3.620899,0 -1.4526,0.18157 -2.83699,0.73669 -4.279244,0.98751 -1.086409,0.18895 -2.221936,0.0618 -3.291728,0.32918 -2.60354,0.65088 -4.967429,1.98249 -7.570969,2.63338 -0.752703,0.18817 -1.577743,0.0567 -2.304208,0.32917 -1.057753,0.39666 -1.890846,1.28863 -2.962555,1.64587 -0.942606,0.3142 -1.998625,0.0882 -2.962554,0.32917 -0.383804,0.0959 -0.658344,0.43891 -0.987517,0.65834 -0.658345,0.43889 -1.291586,0.91802 -1.975037,1.31669 -0.635786,0.37088 -1.362602,0.57924 -1.975036,0.98752 -1.800549,1.20036 -2.066663,1.89292 -3.620899,3.29173 -0.522222,0.47 -1.12075,0.84992 -1.645862,1.31669 -0.463914,0.41237 -0.855333,0.90147 -1.316692,1.31669 -0.636983,0.57328 -1.305852,1.11052 -1.975035,1.64586 -0.428402,0.34272 -0.928757,0.59959 -1.316691,0.98752 -0.387934,0.38794 -0.574637,0.95542 -0.987517,1.3167 -0.481497,0.42131 -1.121722,0.62061 -1.645864,0.9875 -0.575574,0.40292 -1.077664,0.90346 -1.645864,1.31669 -1.985591,1.44408 -1.71848,1.09358 -3.620898,2.30422 -0.667533,0.4248 -1.307504,0.89189 -1.975036,1.31669 -0.539771,0.34349 -1.113521,0.63262 -1.645863,0.98753 -0.912961,0.60862 -1.692505,1.4105 -2.633382,1.97503 -0.631159,0.37869 -1.386193,0.54588 -1.975035,0.98751 -0.316493,0.23737 -0.357971,0.73005 -0.658345,0.98751 -0.48577,0.41639 -1.125239,0.61565 -1.645863,0.98753 -0.25254,0.18038 -0.400121,0.4862 -0.658346,0.65834 -0.408289,0.27219 -0.914691,0.37695 -1.31669,0.65834 -0.702059,0.49145 -1.240187,1.20496 -1.975035,1.64587 -0.387934,0.23276 -0.883367,0.19917 -1.316694,0.32917 -0.584079,0.17522 -2.488383,0.89826 -3.291724,0.98752 -0.545263,0.0606 -1.110306,-0.11901 -1.645863,0 -0.479015,0.1064 -0.84064,0.53933 -1.31669,0.65835 -0.425792,0.1064 -0.877793,0 -1.316691,0 -1.206969,0 -2.413932,0 -3.620905,0 -0.198113,0 -2.532285,0.0577 -2.633376,0 -0.538911,-0.30795 -0.820134,-0.94427 -1.316687,-1.31669 -0.392561,-0.29442 -0.924129,-0.36393 -1.316689,-0.65835 -0.496555,-0.37241 -0.852782,-0.90432 -1.316697,-1.31669 -4.3080887,-3.82941 0.06897,0.54362 -2.304209,-2.30421 -0.04649,-0.0558 -1.9592824,-1.94982 -1.975032,-1.97504 -0.015193,-0.0243 -1.2896949,-3.23773 -1.3166874,-3.29172 -0.1769354,-0.35385 -0.4284061,-0.66559 -0.6583529,-0.98751 -0.3188815,-0.44644 -0.764697,-0.81537 -0.9875208,-1.31669 -0.2272203,-0.51128 -0.1522495,-1.1151 -0.3291679,-1.64587 -0.155178,-0.46552 -0.5518985,-0.83768 -0.6583437,-1.31669 -0.4608434,-2.07378 0.1843353,-1.01385 0,-2.30422 -0.079129,-0.55386 -0.2735036,-1.08914 -0.3291757,-1.64585 -0.05462,-0.5459 0,-1.09725 0,-1.64587 0,-0.98752 0,-1.97504 0,-2.96255 0,-1.42642 0,-2.85283 0,-4.27925 0,-0.32917 0,-0.65834 0,-0.98751 0,-0.10969 -0.065864,-0.2414 0,-0.32918 0.2793093,-0.37242 0.7082009,-0.6151 0.9875194,-0.98751 0.065864,-0.0878 -0.060839,-0.23789 0,-0.32918 0.1721531,-0.25822 0.4388932,-0.4389 0.658345,-0.65835 0.2194506,-0.21944 0.4388932,-0.43889 0.6583437,-0.65834 0.2194506,-0.21945 0.4389011,-0.4389 0.6583529,-0.65835 0.1097122,-0.10968 0.2000508,-0.24309 0.3291666,-0.32916 0.204147,-0.1361 0.454198,-0.19308 0.658345,-0.32918 0.129104,-0.0861 0.2050352,-0.23607 0.3291758,-0.32917 0.3164897,-0.23738 0.671023,-0.42098 0.987512,-0.65835 0.368605,-0.27645 0.627575,-0.69955 0.98752,-0.98752 0.428398,-0.34271 0.888293,-0.6448 1.316688,-0.98751 0.121167,-0.097 0.20006,-0.2431 0.329178,-0.32917 0.06134,-0.0408 1.295593,-0.63726 1.316687,-0.65835 0.173495,-0.17349 0.193079,-0.4542 0.329177,-0.65835 0.08607,-0.1291 0.259776,-0.19037 0.329176,-0.32917 0.15517,-0.31035 0.150655,-0.68999 0.329168,-0.98752 0.159675,-0.26612 0.472137,-0.41006 0.658343,-0.65835 0.294423,-0.39255 0.363923,-0.92412 0.658344,-1.31669 0.186216,-0.24826 0.486201,-0.40012 0.658345,-0.65834 0.12173,-0.18259 -0.09814,-0.46207 0,-0.65834 0.06939,-0.1388 0.243104,-0.20006 0.329176,-0.32917 0.378246,-0.56736 0.329176,-0.49758 0.329176,-0.98752 0,-0.10968 0,-0.21945 0,-0.32917 0,-0.10969 -0.04908,-0.23104 0,-0.32918 0.06939,-0.1388 0.280099,-0.18195 0.329168,-0.32917 0.06939,-0.20818 -0.09814,-0.46206 0,-0.65834 0.13879,-0.27759 0.486201,-0.40013 0.658345,-0.65835 0.06083,-0.0913 0,-0.21945 0,-0.32918 0,-0.21944 -0.0532,-0.44544 0,-0.65834 0.05949,-0.23803 0.251586,-0.42558 0.329175,-0.65834 0.03474,-0.10404 -0.03474,-0.22509 0,-0.32917 0.07762,-0.23277 0.251588,-0.4256 0.329176,-0.65835 0.06695,-0.20082 0,-1.7208 0,-1.97505 0,-1.53612 0,-3.07226 0,-4.6084 0,-0.10969 0,-0.21945 0,-0.32918 0,-0.10969 -0.04908,-0.23102 0,-0.32916 0.484346,-0.9687 0.329168,0.51097 0.329168,-0.98753 0,-0.10969 0.0941,-0.27272 0,-0.32918 -0.506682,-0.30399 -1.097237,-0.43888 -1.645864,-0.65833 z"
       style="fill:none;stroke:#000000;stroke-width:4px;stroke-linecap:butt;stroke-linejoin:miter;stroke-opacity:1" />
  </g>
</svg>
